<svg width="255" height="74" viewBox="0 0 255 74" fill="none" xmlns="http://www.w3.org/2000/svg">
<g clip-path="url(#clip0_1934_117)">
<mask id="mask0_1934_117" style="mask-type:luminance" maskUnits="userSpaceOnUse" x="0" y="0" width="255" height="74">
<path d="M255 0H0V74H255V0Z" fill="white"/>
</mask>
<g mask="url(#mask0_1934_117)">
<path d="M68.5699 8.29833C68.5699 10.4998 67.6645 12.6061 66.0517 14.1668C64.4389 15.7212 62.2459 16.5967 59.9635 16.5967C57.6814 16.5967 55.4947 15.7212 53.8753 14.1668C52.2625 12.6125 51.3574 10.4998 51.3574 8.29833C51.3574 6.09686 52.2625 3.99056 53.8753 2.42987C55.4884 0.875523 57.6748 0 59.9635 0C62.2459 0 64.4324 0.875523 66.0517 2.42987C67.6582 3.98421 68.5699 6.09686 68.5699 8.29833Z" fill="#FF2400"/>
<path d="M68.5702 21.5273H51.3574V61.4275H68.5702V21.5273Z" fill="#FF2400"/>
<path d="M152.283 38.391V21.5273H124.883V38.391H152.283Z" fill="#FF2400"/>
<path d="M23.1992 46.1934C36.0134 46.1934 46.3984 35.8519 46.3984 23.0996C46.3984 10.3473 36.0134 0.00585938 23.1992 0.00585938C10.3851 0.00585938 0 10.3473 0 23.0996V61.4265H16.7858V45.2988V23.1377C16.7858 23.125 16.7858 23.1123 16.7858 23.0996C16.7858 19.5721 19.661 16.7108 23.2056 16.7108C26.7503 16.7108 29.6255 19.5721 29.6255 23.0996C29.6255 26.6273 26.7503 29.4884 23.2056 29.4884C22.6956 29.4884 22.1983 29.4313 21.7266 29.3172V46.149C22.2047 46.1744 22.7019 46.1934 23.1992 46.1934Z" fill="#FF2400"/>
<path d="M231.801 46.1934C244.615 46.1934 255 35.8519 255 23.0996C255 10.3473 244.615 0.00585938 231.801 0.00585938C218.987 0.00585938 208.602 10.3473 208.602 23.0996V61.4265H225.387V46.1934V23.0996C225.387 19.5721 228.263 16.7108 231.807 16.7108C235.352 16.7108 238.227 19.5721 238.227 23.0996C238.227 26.6273 235.352 29.4884 231.807 29.4884C231.297 29.4884 230.8 29.4313 230.328 29.3172V46.149C230.813 46.1744 231.303 46.1934 231.801 46.1934Z" fill="#FF2400"/>
<path d="M119.929 23.0938V61.4205H103.143V23.5823C103.143 21.8884 102.467 20.2642 101.262 19.0651C100.057 17.866 98.4253 17.1935 96.7231 17.1935C95.0209 17.1935 93.3889 17.866 92.1841 19.0651C90.9793 20.2642 90.3034 21.8884 90.3034 23.5823C90.3034 23.6013 90.3034 23.614 90.3034 23.6331V45.293V61.4205H73.5176V23.0938C73.5176 10.3414 83.9027 0 96.7168 0C109.537 0 119.929 10.3414 119.929 23.0938Z" fill="#FF2400"/>
<path d="M157.244 38.3326V0.824219H174.03V16.127V37.7551C174.03 37.7805 174.03 37.8122 174.03 37.8376C174.03 39.5317 174.706 41.1557 175.911 42.355C177.115 43.5541 178.747 44.2264 180.45 44.2264C182.152 44.2264 183.784 43.5541 184.989 42.355C186.194 41.1557 186.869 39.5317 186.869 37.8376V0.824219H203.655V38.3326C203.655 51.0849 193.264 61.4264 180.456 61.4264C167.629 61.4264 157.244 51.0849 157.244 38.3326Z" fill="#FF2400"/>
<path d="M0 67.834H255V68.7151C255 71.6342 252.646 74.0008 249.742 74.0008H5.25773C2.35397 74.0008 0 71.6342 0 68.7151V67.834Z" fill="#00CFA6"/>
</g>
</g>
<defs>
<clipPath id="clip0_1934_117">
<rect width="255" height="74" fill="white"/>
</clipPath>
</defs>
</svg>
