<svg width="1661" height="282" viewBox="0 0 1661 282" fill="none" xmlns="http://www.w3.org/2000/svg">
<g clip-path="url(#clip0_1917_47)">
<path d="M433.859 281.86C511.687 281.86 574.78 218.767 574.78 140.939C574.78 63.1101 511.687 0.0175781 433.859 0.0175781C356.03 0.0175781 292.938 63.1101 292.938 140.939C292.938 218.767 356.03 281.86 433.859 281.86Z" fill="#FB4D00"/>
<path fill-rule="evenodd" clip-rule="evenodd" d="M708.52 48.062C742.16 47.362 763.37 55.854 786.12 63.594C778.63 79.0207 771.133 94.449 763.63 109.879C753.14 104.158 685.847 83.913 684.337 106.942C684.422 117.198 698.537 119.505 710.21 122.442C740 129.942 768.45 136.634 773.75 169.016C783.36 227.676 706.36 250.683 649.482 241.548C632.05 238.748 610.982 234.776 598.875 224.801C606.933 209.561 614.992 194.319 623.054 179.076C650.903 197.862 711.92 209.862 710.77 185.627C710.07 176.927 692.886 173.785 681.534 170.435C663.463 165.103 641.981 160.02 631.489 146.925C601.23 109.165 639.564 67.006 668.6 55.51C681.321 50.5434 694.864 48.0168 708.52 48.062ZM35.9988 54.14C57.1781 54.2607 78.3588 54.3813 99.5408 54.502C109.847 87.5293 120.157 120.559 130.469 153.592L131.594 153.024C155.206 119.891 178.823 86.753 202.443 53.611C223.81 53.5443 245.177 53.4777 266.543 53.411C254.549 115.998 242.553 178.591 230.556 241.191C209.94 241.258 189.323 241.324 168.703 241.391C173.949 213.009 179.197 184.626 184.447 156.241C184.259 156.618 184.071 156.993 183.884 157.37L123.154 241.533L104.599 241.593C95.7888 214.008 86.9788 186.421 78.1688 158.832H77.6068C72.3588 186.462 67.1108 214.095 61.8628 241.732C41.2468 241.799 20.6285 241.865 0.0078125 241.932C12.0065 179.337 24.0035 116.74 35.9988 54.14ZM1006.55 51.059C1003.74 66.659 1000.93 82.2607 998.12 97.864C979.19 97.922 960.256 97.982 941.32 98.044C932.33 145.031 923.333 192.023 914.33 239.019L852.48 239.219V237.527C861.47 191.103 870.466 144.674 879.47 98.241L824.92 98.414V96.724C827.92 81.6887 830.92 66.6507 833.92 51.61L1006.55 51.059ZM1431.66 96.487L1339.44 96.781C1338.13 104.672 1336.82 112.566 1335.5 120.462L1417.04 120.202L1408.04 167.008C1380.68 167.094 1353.31 167.18 1325.94 167.267C1324.44 175.163 1322.94 183.058 1321.45 190.952C1352.56 190.854 1383.67 190.754 1414.79 190.652V191.217C1411.79 206.627 1408.79 222.04 1405.79 237.457L1250.59 237.95V237.386C1262.78 174.986 1274.96 112.579 1287.14 50.166L1440.65 49.679C1437.66 65.2797 1434.67 80.8824 1431.66 96.487ZM1487.33 49.534L1660.52 48.985C1657.52 64.585 1654.52 80.185 1651.52 95.785L1594.73 96.53C1585.73 143.33 1576.73 190.134 1567.74 236.943L1505.88 237.143C1515.07 190.343 1524.26 143.538 1533.44 96.729V96.166L1478.33 96.339C1481.33 80.7397 1484.33 65.138 1487.33 49.534ZM1054.35 51.472C1102.27 50.772 1176.51 44.006 1204.48 63.958C1221.19 75.877 1224.77 105.239 1211.23 123.675C1204.94 132.239 1195.82 135.591 1187.05 141.785V142.348C1219.56 152.336 1217.25 200.698 1193.8 218.971C1158.47 246.507 1078.54 238.732 1016.67 238.695C1029.23 176.294 1041.79 113.887 1054.35 51.472ZM1101.02 121.205C1122.57 121.832 1152.71 124.366 1147.12 104.348C1143.62 96.676 1116.41 94.875 1104.95 98.087L1101.02 121.205ZM1091.46 168.012C1089.96 175.904 1088.46 183.799 1086.96 191.696C1108.98 192.196 1141.71 197.596 1138.69 174.624C1137.55 171.131 1135.8 169.373 1133.63 168.534C1127.17 165.046 1101.15 167.874 1091.46 168.012Z" fill="white"/>
<path fill-rule="evenodd" clip-rule="evenodd" d="M435.24 36.5312C444.986 59.0413 454.733 81.5526 464.481 104.065L538.706 110.029C519.965 126.429 501.222 142.832 482.476 159.238C488.099 183.076 493.723 206.916 499.346 230.757L434.679 193.203C413.689 205.855 392.696 218.509 371.701 231.163C377.323 207.289 382.946 183.414 388.569 159.536C369.828 143.254 351.084 126.97 332.338 110.684C357.077 108.541 381.818 106.396 406.563 104.25C416.122 81.6796 425.681 59.1066 435.24 36.5312Z" fill="white"/>
</g>
<defs>
<clipPath id="clip0_1917_47">
<rect width="1660.53" height="281.875" fill="white"/>
</clipPath>
</defs>
</svg>
