<svg width="297" height="132" viewBox="0 0 297 132" fill="none" xmlns="http://www.w3.org/2000/svg">
<path d="M189.37 32.2071C196.839 32.2071 202.904 26.1672 202.904 18.7315C202.904 11.2958 196.839 5.25586 189.37 5.25586C181.901 5.25586 175.834 11.2958 175.834 18.7315C175.834 26.1927 181.901 32.2071 189.37 32.2071Z" fill="#00A3FF"/>
<path d="M50.0605 42.2836C54.4706 45.4812 56.9431 50.176 55.5921 56.876L46.8741 103.292C45.5996 110.854 38.2837 115.829 30.6874 114.407C23.5242 113.037 18.2475 106.337 19.6752 98.2925L24.6203 71.4174L21.5359 72.8131C15.8259 75.3762 9.09629 72.8131 6.54717 67.0778C3.99806 61.3423 6.54717 54.6172 12.2572 52.0286L35.2757 41.8521C40.7053 39.1367 45.88 39.4919 50.0605 42.2836Z" fill="#00A3FF"/>
<path d="M58.8652 40.0488C61.8731 43.627 65.4052 48.1189 63.6719 58.7776L58.9559 83.927L59.8225 104.179C60.0011 111.386 63.4678 114.634 69.5857 114.634H84.9314C89.8003 114.634 91.7629 110.929 93.7258 106.259L105.426 77.5065L106.624 104.965C106.726 111.056 109.836 114.66 115.444 114.66H132.931C137.902 114.66 139.967 111.665 142.159 106.31L164.49 51.2403C166.912 45.5303 165.509 40.0234 159.468 40.0234H148.226C144.045 40.0234 141.267 41.4445 139.61 45.4036L124.545 82.3029L123.168 49.3879C122.939 42.3834 119.574 40.0488 115.674 40.0488H104.279C99.7673 40.0488 97.1416 41.7998 95.7397 45.2258L80.5979 82.3284L79.2469 48.601C79.043 42.282 76.9527 40.0488 71.8544 40.0488H62.0148C61.8285 40.0488 58.8652 40.0488 58.8652 40.0488Z" fill="white"/>
<path d="M180.752 114.634C187.507 114.634 189.165 109.584 190.134 103.874L199.693 51.6464C201.425 43.6523 199.463 39.998 191.789 39.998H182.741C175.349 39.998 172.825 43.6016 171.83 49.4894L161.965 104.737C160.998 110.295 163.01 114.634 168.746 114.634H180.752Z" fill="white"/>
<path d="M248.204 104.509L252.972 76.0092C253.635 70.7813 252.666 67.0762 249.862 64.7414C245.427 61.1378 239.156 62.7112 235.969 66.3403C233.904 68.5227 232.986 71.492 231.89 77.5065L227.1 103.899C226.18 109.102 224.727 114.634 217.794 114.634H205.991C198.625 114.634 198.115 108.239 198.957 104.509L208.924 49.4894C209.893 44.4391 211.675 40.0234 219.834 40.0234H228.296C234.846 40.0234 238.773 42.4089 236.71 51.6464L235.815 56.2145C240.328 47.0023 251.443 39.998 261.205 39.998C268.598 39.998 271.987 41.2924 276.092 44.972C282.923 51.0628 284.198 60.1988 282.669 67.4313L275.862 103.874C274.92 109.381 273.467 114.634 266.788 114.634H255.037C249.914 114.634 247.186 110.904 248.204 104.509Z" fill="white"/>
</svg>
